<svg xmlns="http://www.w3.org/2000/svg" fill="none" viewBox="0 0 48 48"><path stroke-width="3" stroke="#9b9b9b" d="M6 12a8 8 0 0 1 8-8h5a2 2 0 0 1 2 2v34a2 2 0 0 1-2 2h-5a8 8 0 0 1-8-8V12ZM42 14a8 8 0 0 0-8-8h-6a2 2 0 0 0-2 2v34a2 2 0 0 0 2 2h6a8 8 0 0 0 8-8V14Z" data-follow-stroke="#9b9b9b"/><rect fill="#9b9b9b" rx="2.5" height="5" width="5" y="30" x="11" data-follow-fill="#9b9b9b"/><rect fill="#9b9b9b" rx="2.5" height="5" width="5" y="14" x="31.5" data-follow-fill="#9b9b9b"/><path stroke-linejoin="round" stroke-linecap="round" stroke-width="3" stroke="#9b9b9b" d="M15 17h-3M34 28v6M31 31h6" data-follow-stroke="#9b9b9b"/></svg>