<svg xmlns="http://www.w3.org/2000/svg" fill="none" viewBox="0 0 48 48"><path stroke-linejoin="round" stroke-linecap="round" stroke-width="3" stroke="#9b9b9b" d="M44 31c0 5.523-4.477 10-10 10-1.79 0-3.472-.47-4.926-1.295A10.01 10.01 0 0 1 24 31c0-2.568.968-4.91 2.558-6.68A9.975 9.975 0 0 1 34 21c5.523 0 10 4.477 10 10Z" data-follow-stroke="#9b9b9b"/><path stroke-linejoin="round" stroke-linecap="round" stroke-width="3" stroke="#9b9b9b" d="M34 12v9a9.975 9.975 0 0 0-7.442 3.32A9.963 9.963 0 0 0 24 31a10.01 10.01 0 0 0 5.074 8.705C26.412 40.51 22.878 41 19 41c-8.284 0-15-2.239-15-5V12" data-follow-stroke="#9b9b9b"/><path stroke-linejoin="round" stroke-linecap="round" stroke-width="3" stroke="#9b9b9b" d="M34 12c0 2.761-6.716 5-15 5-8.284 0-15-2.239-15-5s6.716-5 15-5c8.284 0 15 2.239 15 5ZM4 28c0 2.761 6.716 5 15 5 1.807 0 3.54-.106 5.144-.302M4 20c0 2.761 6.716 5 15 5 2.756 0 5.339-.248 7.558-.68M38 31h-4v-4" data-follow-stroke="#9b9b9b"/></svg>